<svg xmlns="http://www.w3.org/2000/svg" width="27.44" height="26.749" viewBox="0 0 27.44 26.749">
  <g id="_7-Check" data-name="7-Check" transform="translate(-32.027 -37.756)">
    <path id="Path_4728" data-name="Path 4728" d="M34.879,49.972a2.86,2.86,0,0,0-2.211,4.665l7.265,8.9a2.6,2.6,0,0,0,2.17.963,2.785,2.785,0,0,0,2.186-1.295L59.382,38.9l.008-.012a.783.783,0,0,0-.2-.919.8.8,0,0,0-1.165.081l-.017.02L42.79,55.267a.66.66,0,0,1-.938.051l-5.051-4.6a2.848,2.848,0,0,0-1.922-.749Z" fill="#ff9432"/>
  </g>
</svg>
