<svg xmlns="http://www.w3.org/2000/svg" width="32.002" height="28.127" viewBox="0 0 32.002 28.127">
  <g id="phone_4_" data-name="phone (4)" transform="translate(0 -31)">
    <path id="Path_71" data-name="Path 71" d="M194.822,31H187.45a6.451,6.451,0,0,0-.921,12.835v2.83a.921.921,0,0,0,1.573.652l3.416-3.416h3.3a6.451,6.451,0,1,0,0-12.9Zm-7.372,7.372a.921.921,0,1,1,.922-.921A.921.921,0,0,1,187.45,38.372Zm3.686,0a.921.921,0,1,1,.922-.921A.921.921,0,0,1,191.136,38.372Zm3.686,0a.921.921,0,1,1,.921-.921A.921.921,0,0,1,194.822,38.372Z" transform="translate(-169.332 0)" fill="#ff9432"/>
    <path id="Path_72" data-name="Path 72" d="M20.7,123.406a2.768,2.768,0,0,0,2.764-2.764v-3.686a.92.92,0,0,0-.63-.874l-5.516-1.843a.923.923,0,0,0-.8.107l-2.345,1.563a16.22,16.22,0,0,1-6.615-6.615l1.563-2.345a.922.922,0,0,0,.107-.8L7.386,100.63a.92.92,0,0,0-.874-.63H2.764A2.756,2.756,0,0,0,0,102.752c0,10.617,10.086,20.654,20.7,20.654Z" transform="translate(0 -64.279)" fill="#ff9432"/>
  </g>
</svg>
